<?xml version="1.0" encoding="UTF-8"?>
<svg xmlns="http://www.w3.org/2000/svg" xmlns:xlink="http://www.w3.org/1999/xlink" width="255px" height="256px" viewBox="0 0 255 256" version="1.1">
<g id="surface1">
<path style=" stroke:none;fill-rule:nonzero;fill:rgb(0%,67.450982%,82.352942%);fill-opacity:1;" d="M 200.898438 25.285156 C 170.234375 -1.179688 102.386719 -14.292969 51.546875 23.707031 C 3.847656 55.675781 1.488281 114.113281 1.488281 114.113281 C 9.613281 146.085938 41.847656 176.746094 103.960938 161.808594 C 96.625 118.832031 111.003906 10.085938 200.898438 25.285156 Z M 200.898438 25.285156 "/>
<path style=" stroke:none;fill-rule:nonzero;fill:rgb(78.431374%,91.37255%,92.156863%);fill-opacity:1;" d="M 168.957031 129.226562 C 135.402344 157.070312 33.273438 199.558594 1.488281 114.117188 C -6.101562 153.902344 14.964844 220.121094 73.296875 245.148438 C 124.835938 270.46875 178.546875 241.144531 178.546875 241.144531 C 202.175781 218.125 212.949219 175.546875 168.957031 129.226562 "/>
<path style=" stroke:none;fill-rule:nonzero;fill:rgb(40.000001%,17.647059%,56.862748%);fill-opacity:1;" d="M 108.355469 90.175781 C 149.246094 105.308594 236.65625 170.902344 178.546875 241.144531 C 216.804688 227.824219 261.660156 176.863281 254.171875 113.839844 C 250.332031 56.550781 200.898438 25.289062 200.898438 25.289062 C 169.148438 16.335938 126.472656 28.921875 108.355469 90.175781 "/>
</g>
</svg>
