<?xml version="1.0" encoding="UTF-8"?>
<svg xmlns="http://www.w3.org/2000/svg" xmlns:xlink="http://www.w3.org/1999/xlink" width="222px" height="256px" viewBox="0 0 222 255" version="1.1">
<g id="surface1">
<path style=" stroke:none;fill-rule:nonzero;fill:rgb(0%,65.882355%,9.411765%);fill-opacity:1;" d="M 112.171875 0.0273438 C 50.171875 0.0273438 0 50.167969 0 112.125 C 0 166.671875 39.128906 211.996094 90.765625 222.078125 L 90.765625 254.167969 C 157.894531 244.054688 217.335938 190.800781 221.773438 120.894531 C 224.441406 78.816406 203.449219 35.863281 168.042969 15.003906 C 166.015625 13.808594 163.953125 12.625 161.832031 11.582031 C 159.671875 10.519531 157.453125 9.484375 155.199219 8.585938 C 154.480469 8.285156 153.78125 8.015625 153.058594 7.730469 C 151.085938 7.003906 149.101562 6.183594 147.0625 5.589844 C 136.085938 1.976562 124.355469 0.0273438 112.171875 0.0273438 Z M 112.171875 0.0273438 "/>
<path style=" stroke:none;fill-rule:nonzero;fill:rgb(100%,100%,100%);fill-opacity:1;" d="M 135.40625 41.449219 C 131.5625 41.054688 127.515625 42.390625 124.683594 45.734375 C 122.625 48.480469 121.335938 51.136719 119.964844 53.878906 C 115.84375 63.484375 117.21875 73.773438 123.394531 81.320312 C 133.003906 79.261719 141.15625 73.128906 145.277344 63.527344 C 146.648438 60.78125 147.421875 57.265625 147.421875 54.523438 C 147.847656 47.234375 141.816406 42.105469 135.40625 41.449219 Z M 85.429688 42.089844 C 79.160156 42.6875 73.203125 47.664062 73.203125 54.523438 C 73.203125 57.265625 73.972656 60.78125 75.347656 63.527344 C 79.464844 73.128906 88.261719 79.261719 97.871094 81.316406 C 103.363281 73.773438 104.777344 63.484375 100.660156 53.878906 C 99.285156 51.136719 98 48.4375 95.941406 46.378906 C 93.109375 43.035156 89.191406 41.734375 85.429688 42.089844 Z M 51.753906 75.101562 C 40.929688 75.65625 36.09375 89.25 45.105469 96.324219 C 47.851562 98.382812 50.507812 99.882812 53.253906 101.253906 C 62.863281 105.371094 73.976562 103.957031 82.210938 98.46875 C 80.152344 89.550781 73.160156 81.363281 63.550781 77.246094 C 60.117188 75.875 57.332031 75.101562 53.898438 75.101562 C 53.125 75.015625 52.476562 75.066406 51.753906 75.101562 Z M 157.503906 116.6875 C 151.214844 116.566406 144.847656 118.402344 139.699219 121.832031 C 141.757812 130.75 148.75 138.9375 158.363281 143.054688 C 161.792969 144.425781 164.582031 145.199219 168.011719 145.199219 C 180.367188 145.882812 186.417969 130.621094 176.808594 123.761719 C 174.0625 121.703125 171.402344 120.417969 168.65625 119.046875 C 165.054688 117.503906 161.273438 116.761719 157.503906 116.6875 Z M 63.765625 117.332031 C 59.992188 117.402344 56.214844 118.144531 52.613281 119.6875 C 49.179688 121.0625 46.519531 122.5625 44.460938 124.621094 C 35.535156 132.164062 41.542969 146.527344 53.898438 145.839844 C 57.332031 145.839844 60.804688 145.070312 63.550781 143.695312 C 73.160156 139.582031 79.980469 131.394531 81.355469 122.476562 C 76.15625 119.011719 70.015625 117.21875 63.765625 117.332031 Z M 98.515625 138.339844 C 88.90625 140.394531 80.753906 146.527344 76.636719 156.128906 C 75.261719 158.875 74.492188 162.175781 74.492188 164.917969 C 73.804688 176.578125 89.71875 182.839844 96.585938 173.921875 C 98.644531 171.175781 99.929688 168.519531 101.304688 165.777344 C 105.421875 156.859375 104.007812 146.570312 98.515625 138.339844 Z M 124.039062 138.980469 C 118.550781 146.527344 117.132812 156.816406 121.25 166.417969 C 122.625 169.164062 123.910156 171.863281 125.972656 173.921875 C 133.523438 182.152344 149.394531 176.0625 148.707031 165.777344 C 148.707031 163.03125 147.9375 159.515625 146.5625 156.773438 C 142.445312 147.167969 133.652344 141.039062 124.039062 138.980469 Z M 124.039062 138.980469 "/>
</g>
</svg>
