<svg role="img" viewBox="0 0 256 256" xmlns="http://www.w3.org/2000/svg" id="Gitbook--Streamline-Simple-Icons" height="256" width="256">
  <desc>
    Gitbook Streamline Icon: https://streamlinehq.com
  </desc>
  <title>GitBook</title>
  <path d="M133.47199999999998 11.701333333333332c-6.88 0 -13.152000000000001 3.626666666666667 -25.674666666666667 10.847999999999999L39.199999999999996 62.08A77.15199999999999 77.15199999999999 0 0 0 0 128.672v2.517333333333333a77.15199999999999 77.15199999999999 0 0 0 39.114666666666665 66.53866666666667L82.02666666666667 222.50666666666666c25.109333333333332 14.506666666666668 37.664 21.78133333333333 51.455999999999996 21.78133333333333 13.781333333333333 0.010666666666666666 26.346666666666668 -7.232 51.46666666666667 -21.738666666666663l45.344 -26.16533333333333c12.554666666666666 -7.253333333333334 18.816 -10.879999999999999 22.261333333333333 -16.842666666666666 3.445333333333333 -5.973333333333334 3.456 -13.226666666666667 3.445333333333333 -27.733333333333334v-28.05333333333333a11.093333333333334 11.093333333333334 0 0 0 -16.618666666666666 -9.632l-93.09866666666666 53.58933333333333c-6.261333333333333 3.594666666666667 -9.386666666666667 5.4079999999999995 -12.810666666666666 5.4079999999999995 -3.445333333333333 0 -6.570666666666666 -1.792 -12.842666666666666 -5.397333333333333l-62.976 -36.19199999999999c-3.1679999999999997 -1.824 -4.757333333333333 -2.7306666666666666 -6.0266666666666655 -2.8906666666666667a6.4319999999999995 6.4319999999999995 0 0 0 -6.762666666666666 3.925333333333333c-0.48 1.184 -0.48 3.0079999999999996 -0.4586666666666666 6.666666666666666 0.021333333333333333 2.6879999999999997 0 4.032 0.26666666666666666 5.269333333333333 0.5653333333333332 2.7626666666666666 2.016 5.258666666666667 4.128 7.1146666666666665 0.9493333333333333 0.8213333333333332 2.112 1.4933333333333334 4.437333333333333 2.8373333333333335l67.36 38.93333333333333c6.282666666666666 3.626666666666667 9.429333333333332 5.4399999999999995 12.874666666666666 5.4399999999999995 3.456 0 6.581333333333333 -1.8133333333333335 12.863999999999999 -5.429333333333333l82.56 -47.669333333333334c2.1546666666666665 -1.2373333333333334 3.221333333333333 -1.8346666666666664 4.021333333333333 -1.3866666666666667 0.7999999999999999 0.46933333333333327 0.7999999999999999 1.7066666666666666 0.7999999999999999 4.181333333333333v12.725333333333333c0 3.626666666666667 0.010666666666666666 5.4399999999999995 -0.8533333333333333 6.922666666666666 -0.8533333333333333 1.4933333333333334 -2.421333333333333 2.389333333333333 -5.568 4.2026666666666666l-68.07466666666666 39.306666666666665c-12.565333333333331 7.253333333333334 -18.848 10.879999999999999 -25.738666666666663 10.879999999999999 -6.890666666666666 0 -13.184 -3.626666666666667 -25.727999999999998 -10.901333333333334l-63.67999999999999 -36.82133333333333 -0.4586666666666666 -0.26666666666666666a43.79733333333333 43.79733333333333 0 0 1 -21.664 -37.54666666666667V124.79999999999998c0 -8.544 4.554666666666666 -16.43733333333333 11.946666666666667 -20.735999999999997a21.109333333333332 21.109333333333332 0 0 1 21.141333333333332 -0.010666666666666666l52.75733333333333 30.485333333333333c12.522666666666666 7.242666666666667 18.794666666666664 10.869333333333332 25.674666666666667 10.879999999999999 6.88 0 13.152000000000001 -3.626666666666667 25.706666666666667 -10.847999999999999l79.80799999999999 -45.93066666666667a11.637333333333332 11.637333333333332 0 0 0 0 -20.170666666666666L159.14666666666665 22.506666666666664c-12.533333333333333 -7.2 -18.794666666666664 -10.805333333333332 -25.664 -10.805333333333332Z" fill="#000000" stroke-width="10.6667"></path>
</svg>