<?xml version="1.0" encoding="UTF-8"?>
<svg xmlns="http://www.w3.org/2000/svg" xmlns:xlink="http://www.w3.org/1999/xlink" width="256px" height="256px" viewBox="0 0 256 256" version="1.1">
<g id="surface1">
<path style=" stroke:none;fill-rule:nonzero;fill:rgb(0%,0%,0%);fill-opacity:1;" d="M 115.222656 189.546875 C 119.363281 189.550781 122.714844 192.914062 122.710938 197.054688 C 122.703125 201.199219 119.339844 204.550781 115.199219 204.542969 C 111.058594 204.539062 107.707031 201.175781 107.710938 197.035156 C 107.71875 192.894531 111.078125 189.539062 115.222656 189.546875 M 232.8125 143.179688 C 228.667969 143.175781 225.3125 139.816406 225.316406 135.675781 C 225.320312 131.535156 228.679688 128.179688 232.820312 128.179688 C 236.960938 128.183594 240.316406 131.542969 240.316406 135.683594 C 240.3125 139.828125 236.953125 143.179688 232.8125 143.179688 M 232.8125 112.5 C 220.007812 112.511719 209.632812 122.886719 209.621094 135.691406 C 209.621094 138.175781 210.039062 140.652344 210.847656 143.0625 L 134.25 183.839844 C 129.9375 177.578125 122.824219 173.84375 115.222656 173.84375 C 106.378906 173.84375 98.324219 178.910156 94.421875 186.816406 L 25.609375 150.527344 C 18.335938 146.710938 12.894531 134.742188 13.472656 123.839844 C 13.769531 118.15625 15.734375 113.738281 18.730469 112.03125 C 20.628906 110.964844 22.910156 111.050781 25.34375 112.320312 L 25.792969 112.566406 C 44.03125 122.164062 103.703125 153.601562 106.21875 154.761719 C 110.089844 156.566406 112.246094 157.289062 118.859375 154.15625 L 242.207031 90.003906 C 244.019531 89.324219 246.132812 87.585938 246.132812 84.949219 C 246.132812 81.300781 242.355469 79.863281 242.347656 79.863281 C 235.328125 76.5 224.542969 71.457031 214.027344 66.527344 C 191.542969 56 166.058594 44.074219 154.871094 38.207031 C 145.207031 33.152344 137.429688 37.417969 136.042969 38.273438 L 133.355469 39.605469 C 82.988281 64.511719 15.574219 97.898438 11.734375 100.234375 C 4.875 104.414062 0.617188 112.746094 0.0625 123.082031 C -0.789062 139.476562 7.5625 156.574219 19.519531 162.835938 L 92.289062 200.363281 C 93.945312 211.757812 103.707031 220.210938 115.222656 220.222656 C 127.878906 220.203125 138.183594 210.050781 138.398438 197.398438 L 218.550781 153.953125 C 222.601562 157.128906 227.648438 158.871094 232.8125 158.871094 C 245.613281 158.859375 255.988281 148.480469 256 135.679688 C 255.988281 122.878906 245.613281 112.503906 232.8125 112.492188 "/>
</g>
</svg>
